<?xml version="1.0" encoding="utf-8"?>
<!-- Generator: Adobe Illustrator 24.0.1, SVG Export Plug-In . SVG Version: 6.00 Build 0)  -->
<svg version="1.1" id="レイヤー_1" xmlns="http://www.w3.org/2000/svg" xmlns:xlink="http://www.w3.org/1999/xlink" x="0px"
	 y="0px" viewBox="0 0 640 512" style="enable-background:new 0 0 640 512;" xml:space="preserve">
<style type="text/css">
	.st0{fill:none;}
	.st1{opacity:0.15;enable-background:new    ;}
	.st2{fill:#22C2D3;}
</style>
<rect class="st0" width="640" height="512"/>
<g id="積立" class="st1">
	<g id="icon_feature_01-copy-2" transform="translate(-17.000000, -17.000000)">
		<g id="Group-3" transform="translate(18.000000, 18.000000)">
			<path class="st2" d="M235.5,435.1h-83.5c-6.9,0-12.5-5.6-12.5-12.5V339c0-6.9,5.6-12.5,12.5-12.5h83.5c6.9,0,12.5,5.6,12.5,12.5
				v83.5C248,429.5,242.4,435.1,235.5,435.1z M151.9,334.9c-2.3,0-4.2,1.9-4.2,4.2v83.5c0,2.3,1.9,4.2,4.2,4.2h83.5
				c2.3,0,4.2-1.9,4.2-4.2V339c0-2.3-1.9-4.2-4.2-4.2H151.9z"/>
			<path class="st2" d="M360.8,435.1h-83.5c-6.9,0-12.5-5.6-12.5-12.5V339c0-6.9,5.6-12.5,12.5-12.5h83.5c6.9,0,12.5,5.6,12.5,12.5
				v83.5C373.3,429.5,367.7,435.1,360.8,435.1z M277.2,334.9c-2.3,0-4.2,1.9-4.2,4.2v83.5c0,2.3,1.9,4.2,4.2,4.2h83.5
				c2.3,0,4.2-1.9,4.2-4.2V339c0-2.3-1.9-4.2-4.2-4.2H277.2z"/>
			<path class="st2" d="M360.8,309.8h-83.5c-6.9,0-12.5-5.6-12.5-12.5v-83.5c0-6.9,5.6-12.5,12.5-12.5h83.5
				c6.9,0,12.5,5.6,12.5,12.5v83.5C373.3,304.2,367.7,309.8,360.8,309.8z M277.2,209.6c-2.3,0-4.2,1.9-4.2,4.2v83.5
				c0,2.3,1.9,4.2,4.2,4.2h83.5c2.3,0,4.2-1.9,4.2-4.2v-83.5c0-2.3-1.9-4.2-4.2-4.2H277.2z"/>
			<path class="st2" d="M486.1,435.1h-83.5c-6.9,0-12.5-5.6-12.5-12.5V339c0-6.9,5.6-12.5,12.5-12.5h83.5c6.9,0,12.5,5.6,12.5,12.5
				v83.5C498.6,429.5,493,435.1,486.1,435.1z M402.5,334.9c-2.3,0-4.2,1.9-4.2,4.2v83.5c0,2.3,1.9,4.2,4.2,4.2h83.5
				c2.3,0,4.2-1.9,4.2-4.2V339c0-2.3-1.9-4.2-4.2-4.2H402.5z"/>
			<path class="st2" d="M486.1,309.8h-83.5c-6.9,0-12.5-5.6-12.5-12.5v-83.5c0-6.9,5.6-12.5,12.5-12.5h83.5
				c6.9,0,12.5,5.6,12.5,12.5v83.5C498.6,304.2,493,309.8,486.1,309.8z M402.5,209.6c-2.3,0-4.2,1.9-4.2,4.2v83.5
				c0,2.3,1.9,4.2,4.2,4.2h83.5c2.3,0,4.2-1.9,4.2-4.2v-83.5c0-2.3-1.9-4.2-4.2-4.2H402.5z"/>
			<path class="st2" d="M486.1,184.5h-83.5c-6.9,0-12.5-5.6-12.5-12.5V88.4c0-6.9,5.6-12.5,12.5-12.5h83.5c6.9,0,12.5,5.6,12.5,12.5
				V172C498.6,178.9,493,184.5,486.1,184.5z M402.5,84.2c-2.3,0-4.2,1.9-4.2,4.2V172c0,2.3,1.9,4.2,4.2,4.2h83.5
				c2.3,0,4.2-1.9,4.2-4.2V88.4c0-2.3-1.9-4.2-4.2-4.2H402.5z"/>
		</g>
	</g>
</g>
</svg>
