<?xml version="1.0" encoding="utf-8"?>
<!-- Generator: Adobe Illustrator 22.1.0, SVG Export Plug-In . SVG Version: 6.00 Build 0)  -->
<svg version="1.1" id="レイヤー_1" xmlns="http://www.w3.org/2000/svg" xmlns:xlink="http://www.w3.org/1999/xlink" x="0px"
	 y="0px" viewBox="0 0 640 512" style="enable-background:new 0 0 640 512;" xml:space="preserve">
<style type="text/css">
	.st0{fill:#38C7A7;}
	.st1{fill:#FFFFFF;}
	.st2{fill:none;}
	.st3{fill:#22C2D3;}
	.st4{fill:#E3F7F9;}
	.st5{fill:none;stroke:#22C2D3;stroke-width:8.5039;stroke-miterlimit:10;}
	.st6{fill:none;stroke:#22C2D3;stroke-width:17.0079;stroke-linecap:round;stroke-linejoin:round;stroke-miterlimit:10;}
	.st7{fill:#C5EFE5;}
	.st8{fill:none;stroke:#22C2D3;stroke-width:8.5039;stroke-linecap:round;stroke-linejoin:round;stroke-miterlimit:10;}
	.st9{fill:#A0E5EC;}
	.st10{fill:none;stroke:#22C2D3;stroke-width:16;stroke-linejoin:round;stroke-miterlimit:10;}
	.st11{fill:#FFFFFF;stroke:#22C2D3;stroke-width:16;stroke-linejoin:round;stroke-miterlimit:10;}
	.st12{fill:#FFFFFF;stroke:#22C2D3;stroke-width:8;stroke-linejoin:round;stroke-miterlimit:10;}
	.st13{fill:none;stroke:#22C2D3;stroke-width:16;stroke-linecap:round;stroke-linejoin:round;stroke-dasharray:30.846,82.2559;}
	.st14{fill:none;stroke:#22C2D3;stroke-width:8;stroke-linejoin:round;stroke-miterlimit:10;}
	.st15{fill:none;stroke:#22C2D3;stroke-width:11.7997;stroke-miterlimit:10;}
	.st16{fill:#FFFFFF;stroke:#22C2D3;stroke-width:14.6446;stroke-linejoin:round;stroke-miterlimit:10;}
	.st17{fill:#FFFFFF;stroke:#22C2D3;stroke-width:8;stroke-linecap:round;stroke-linejoin:round;stroke-miterlimit:10;}
	.st18{opacity:0.15;}
	.st19{opacity:0.15;fill:#22C2D3;}
	.st20{fill:none;stroke:#22C2D3;stroke-width:8;stroke-linecap:round;stroke-linejoin:round;stroke-miterlimit:10;}
	.st21{fill:none;stroke:#22C2D3;stroke-width:14.645;stroke-linecap:round;stroke-linejoin:round;stroke-miterlimit:10;}
	.st22{fill:#11C1A4;}
	.st23{fill:none;stroke:#11C1A4;stroke-width:11;stroke-miterlimit:10;}
</style>
<rect class="st2" width="640" height="512"/>
<path class="st19" d="M580.5,429h-34V155.3c9.6-34.1,21-64.4,37-83.2c1.4-1.7,1.2-4.2-0.4-5.6c-1.7-1.4-4.2-1.2-5.6,0.4
	c-12.8,14.9-22.7,36.4-31,61.1V87c0-2.2-1.8-4-4-4h-64c-2.2,0-4,1.8-4,4v259.4c-7.6,7.5-15.8,11.1-25,11.1c-9.2,0-16.9-3.1-23.5-8.5
	v-77.5c0-2.2-1.8-4-4-4h-32.7c-1-4.1-2.1-8.1-3.1-12.2c-11.4-45.2-22.1-87.8-51.7-87.8c-30.8,0-40.1,39.3-49,77.2
	c-9,38.2-18.3,77.8-48,77.8c-14.9,0-28.6-22.4-41.8-44.1c-3.6-5.9-7.1-11.7-10.7-17.1V193c0-2.2-1.8-4-4-4h-64c-2.2,0-4,1.8-4,4
	v78.1c-4.3,9.6-8.4,20.2-12.7,31c-10.6,27.2-21.6,55.4-33.5,60.7c-2,0.9-2.9,3.3-2,5.3c0.7,1.5,2.1,2.4,3.7,2.4
	c0.5,0,1.1-0.1,1.6-0.4c14.8-6.6,25.9-35,37.6-65.1c1.7-4.4,3.4-8.8,5.2-13.2V429H68.5c-2.2,0-4,1.8-4,4s1.8,4,4,4H117h64h56.5h64
	H358h64h56.5h64h38c2.2,0,4-1.8,4-4S582.7,429,580.5,429z M538.5,91v63.2c-5.4,19.2-10.2,39.5-14.9,59.5c-9,38-17.5,73.8-29.2,100.9
	c-3.8,8.8-7.8,16.2-11.9,22.2V91H538.5z M418,275.5v65.2c-12.1-15.4-19.8-39.6-26.7-65.2H418z M121,197h56v53
	c-8.6-11-17.8-18.5-28.5-18.5c-10.7,0-19.5,9.4-27.5,23.5V197z M121,429V272.9c8.5-18.7,17.7-33.4,27.5-33.4
	c9.8,0,19.3,10.6,28.5,24.2V429H121z M297.5,429h-56v-78.5h56V429z M354,271.5V429h-48.5v-82.5c0-2.2-1.8-4-4-4h-64
	c-2.2,0-4,1.8-4,4V429H185V276.2c1.3,2.1,2.6,4.2,3.9,6.4c14.4,23.6,29.2,47.9,48.6,47.9c16.4,0,29-9.1,38.4-27.7
	c7.9-15.7,12.8-36.3,17.4-56.3c8.6-36.5,16.7-71,41.2-71c23.3,0,33.3,39.7,43.9,81.8c0.9,3.4,1.7,6.8,2.6,10.2h-23
	C355.8,267.5,354,269.3,354,271.5z M362,429V275.5h21.1c8,30.4,17.8,60.4,34.9,77V429H362z M426,429v-70.2
	c6.8,4.3,14.5,6.7,23.5,6.7c9.5,0,17.7-3,25-8.5v72H426z M482.5,429v-79.3c23.2-25.6,35.8-78.8,48.9-134.1
	c2.3-9.9,4.7-19.8,7.1-29.7V429H482.5z"/>
</svg>
