<?xml version="1.0" encoding="utf-8"?>
<!-- Generator: Adobe Illustrator 22.1.0, SVG Export Plug-In . SVG Version: 6.00 Build 0)  -->
<svg version="1.1" id="レイヤー_1" xmlns="http://www.w3.org/2000/svg" xmlns:xlink="http://www.w3.org/1999/xlink" x="0px"
	 y="0px" viewBox="0 0 640 512" style="enable-background:new 0 0 640 512;" xml:space="preserve">
<style type="text/css">
	.st0{fill:#38C7A7;}
	.st1{fill:#FFFFFF;}
	.st2{fill:none;}
	.st3{fill:#22C2D3;}
	.st4{fill:#E3F7F9;}
	.st5{fill:none;stroke:#22C2D3;stroke-width:8.5039;stroke-miterlimit:10;}
	.st6{fill:none;stroke:#22C2D3;stroke-width:17.0079;stroke-linecap:round;stroke-linejoin:round;stroke-miterlimit:10;}
	.st7{fill:#C5EFE5;}
	.st8{fill:none;stroke:#22C2D3;stroke-width:8.5039;stroke-linecap:round;stroke-linejoin:round;stroke-miterlimit:10;}
	.st9{fill:#A0E5EC;}
	.st10{fill:none;stroke:#22C2D3;stroke-width:16;stroke-linejoin:round;stroke-miterlimit:10;}
	.st11{fill:#FFFFFF;stroke:#22C2D3;stroke-width:16;stroke-linejoin:round;stroke-miterlimit:10;}
	.st12{fill:#FFFFFF;stroke:#22C2D3;stroke-width:8;stroke-linejoin:round;stroke-miterlimit:10;}
	.st13{fill:none;stroke:#22C2D3;stroke-width:16;stroke-linecap:round;stroke-linejoin:round;stroke-dasharray:30.846,82.2559;}
	.st14{fill:none;stroke:#22C2D3;stroke-width:8;stroke-linejoin:round;stroke-miterlimit:10;}
	.st15{fill:none;stroke:#22C2D3;stroke-width:11.7997;stroke-miterlimit:10;}
	.st16{fill:#FFFFFF;stroke:#22C2D3;stroke-width:14.6446;stroke-linejoin:round;stroke-miterlimit:10;}
	.st17{fill:#FFFFFF;stroke:#22C2D3;stroke-width:8;stroke-linecap:round;stroke-linejoin:round;stroke-miterlimit:10;}
	.st18{opacity:0.15;}
	.st19{opacity:0.15;fill:#22C2D3;}
	.st20{fill:none;stroke:#22C2D3;stroke-width:8;stroke-linecap:round;stroke-linejoin:round;stroke-miterlimit:10;}
	.st21{fill:none;stroke:#22C2D3;stroke-width:14.645;stroke-linecap:round;stroke-linejoin:round;stroke-miterlimit:10;}
	.st22{fill:#11C1A4;}
	.st23{fill:none;stroke:#11C1A4;stroke-width:11;stroke-miterlimit:10;}
</style>
<rect class="st2" width="640" height="512"/>
<g class="st18">
	<path class="st3" d="M329.7,229.1c47.7,0,86.5-38.8,86.5-86.5c0-47.7-38.8-86.5-86.5-86.5c-47.7,0-86.5,38.8-86.5,86.5
		C243.2,190.3,282,229.1,329.7,229.1z M329.7,64.1c43.3,0,78.5,35.2,78.5,78.5c0,43.3-35.2,78.5-78.5,78.5
		c-43.3,0-78.5-35.2-78.5-78.5C251.2,99.3,286.5,64.1,329.7,64.1z"/>
	<path class="st3" d="M305.6,171.9l-3.7,15l9,2.3l3.7-14.9c2.5,0.7,4.9,1.3,7.2,1.9l-3.7,14.8l9.1,2.3l3.7-15
		c15.4,2.9,27,1.7,31.9-12.2c3.9-11.2-0.2-17.7-8.3-22c5.9-1.4,10.4-5.3,11.6-13.3c1.6-11-6.7-16.9-18.1-20.8l3.7-14.9l-9.1-2.3
		l-3.6,14.5c-2.4-0.6-4.8-1.2-7.3-1.7l3.6-14.6l-9-2.3l-3.7,14.9c-2-0.4-3.9-0.9-5.8-1.4l0,0l-12.5-3.1l-2.4,9.7
		c0,0,6.7,1.5,6.6,1.6c3.7,0.9,4.3,3.3,4.2,5.3c-10.2,40.7,0,0-10.2,40.7c-0.4,1.1-1.6,2.8-4.1,2.2c0.1,0.1-6.6-1.6-6.6-1.6
		l-4.5,10.4l11.8,2.9C301.3,170.8,303.5,171.4,305.6,171.9z M329.3,116.3c5.1,1.3,21.6,3.7,18.9,14.3c-2.6,10.2-18.3,5-23.4,3.8
		L329.3,116.3z M322.5,143.5c6.1,1.5,25.8,4.6,22.9,16.3c-2.8,11.2-21.7,5.2-27.9,3.6L322.5,143.5z"/>
	<path class="st3" d="M502.3,248.7c-0.7-1.1-2-1.7-3.3-1.7H169.7l-30-77c-0.6-1.5-2.1-2.5-3.7-2.5H86c-2.2,0-4,1.8-4,4s1.8,4,4,4
		h47.3l30,77c0,0,0,0,0,0l58,149c0.1,0.2,0.2,0.4,0.3,0.6c0.1,0.1,0.1,0.2,0.2,0.3c0,0.1,0.1,0.1,0.1,0.2c0.1,0.1,0.2,0.2,0.3,0.3
		c0.1,0.1,0.1,0.1,0.2,0.2c0.1,0.1,0.2,0.1,0.3,0.2c0.1,0.1,0.1,0.1,0.2,0.2c0.1,0.1,0.2,0.1,0.3,0.1c0.1,0.1,0.2,0.1,0.3,0.2
		c0.1,0,0.2,0.1,0.3,0.1c0.1,0,0.2,0.1,0.3,0.1c0.1,0,0.3,0.1,0.4,0.1c0.1,0,0.1,0,0.2,0c0.2,0,0.4,0,0.6,0c0,0,0,0,0,0h216
		c1.6,0,3.1-1,3.7-2.5l58-149C503.2,251.2,503.1,249.8,502.3,248.7z M438.3,396H227.7l-54.9-141h320.4L438.3,396z"/>
	<path class="st3" d="M442,413c-13.2,0-24,10.8-24,24s10.8,24,24,24s24-10.8,24-24S455.2,413,442,413z M442,453c-8.8,0-16-7.2-16-16
		s7.2-16,16-16s16,7.2,16,16S450.8,453,442,453z"/>
	<path class="st3" d="M225,413c-13.2,0-24,10.8-24,24s10.8,24,24,24s24-10.8,24-24S238.2,413,225,413z M225,453c-8.8,0-16-7.2-16-16
		s7.2-16,16-16s16,7.2,16,16S233.8,453,225,453z"/>
	<path class="st3" d="M333.5,361c2.2,0,4-1.8,4-4v-62c0-2.2-1.8-4-4-4s-4,1.8-4,4v62C329.5,359.2,331.3,361,333.5,361z"/>
	<path class="st3" d="M376.1,360.7c0.5,0.2,1,0.3,1.4,0.3c1.6,0,3.1-1,3.7-2.6l24-62c0.8-2.1-0.2-4.4-2.3-5.2
		c-2.1-0.8-4.4,0.2-5.2,2.3l-24,62C373,357.6,374,359.9,376.1,360.7z"/>
	<path class="st3" d="M260.7,296.4l24,62c0.6,1.6,2.1,2.6,3.7,2.6c0.5,0,1-0.1,1.4-0.3c2.1-0.8,3.1-3.1,2.3-5.2l-24-62
		c-0.8-2.1-3.1-3.1-5.2-2.3C261,292.1,259.9,294.4,260.7,296.4z"/>
</g>
</svg>
