<?xml version="1.0" encoding="utf-8"?>
<!-- Generator: Adobe Illustrator 23.0.3, SVG Export Plug-In . SVG Version: 6.00 Build 0)  -->
<svg version="1.1" id="レイヤー_1" xmlns="http://www.w3.org/2000/svg" xmlns:xlink="http://www.w3.org/1999/xlink" x="0px"
	 y="0px" viewBox="0 0 640 512" style="enable-background:new 0 0 640 512;" xml:space="preserve">
<style type="text/css">
	.st0{fill:none;}
	.st1{opacity:0.15;fill:#22C2D3;enable-background:new    ;}
</style>
<rect class="st0" width="640" height="512"/>
<path class="st1" d="M465.4,393.1l-33.3-75.2c-5.6-13.6-13.4-48.2-2.5-125.7c3.3-23-0.5-46.5-11.5-71.8
	c-14.5-33.4-41.1-59.3-74.9-72.8S272.3,34.9,239,49.4l-1.8,0.8c-33.4,14.6-59.2,41.3-72.6,75.4c-13.4,34-12.6,71.2,1.9,104.6
	c9.7,22.2,25.4,41.7,45.7,56.8l0.1,0.1c39,26,61.9,47.8,74.9,63.8c0.2,0.5,0.6,0.8,0.9,1.1c8.2,10.1,12.5,17.8,14.6,22.3l7.9,18.2
	c0.1,0.3,0.2,0.8,0.5,1.1l24.3,56.3c6.6,15.2,21.7,25.1,38.5,25.1c5.7,0,11.5-1.2,16.5-3.5l53.2-23.2c10.2-4.5,18.1-12.7,22.3-23.2
	C470,414.8,469.7,403.4,465.4,393.1z M337.9,432.6l-7-16.1l100.7-77.2l7.1,16L337.9,432.6z M273.4,179.7c-0.1-2.3-0.3-6,0.6-6.8
	c0.8-0.5,3.9,0.1,5.6,0.3c3.4,0.6,7.3,1.1,10.6-0.2c2.8-1.1,4.8-3.9,6.8-6.6c1.4-1.9,3.3-4.7,4.5-4.8c0.8,0.2,2.7,2.4,3.8,3.6
	c2.6,2.7,5.4,5.9,9.2,6.8c3.3,0.8,6.6-0.7,9.9-2c2-0.9,4.6-2,6.1-1.9l38.5,141.9L338,323.3l-79.9-125.4c0.3-0.9,1-1.1,3.4-1.7
	c2.9-0.7,7.4-1.8,10.5-6.8C273.8,186.6,273.5,183.1,273.4,179.7z M421.6,315.2c0.7,2.1,1.5,4.3,2.3,6.2l4.4,10l-100.7,77.1l-7-16.1
	L421.6,315.2z M420.8,190.9c-3.5,25-7.8,65.1-4.3,98.1l-39.7,17.3L328.9,130c-0.3-1.1-1-2-1.9-2.6c-1-0.6-2.1-0.7-3.3-0.5
	c-1.1,0.3-2,1-2.6,1.9c-0.6,1-0.7,2.1-0.5,3.3l7.5,28c-2.5,0.3-5,1.5-7.1,2.4c-1.6,0.6-4.2,1.7-5,1.6c-1.5-0.3-3.5-2.6-5.2-4.4
	c-2.8-3.2-5.7-6.3-9.9-6.2c-5.1,0.2-8.2,4.6-10.7,8.1c-1,1.5-2.6,3.6-3.4,3.9c-1.2,0.6-4.2,0.1-6.4-0.2c-4.2-0.6-8.9-1.4-12.2,1.7
	c-3.6,3.4-3.4,8.7-3.2,12.9c0,1.7,0.1,4.5-0.2,5.2c-1.4,2.1-2.8,2.6-5.6,3.3c-1.7,0.5-3.9,1-5.9,2.5L239,168
	c-0.6-0.9-1.5-1.6-2.5-1.9c-1.1-0.2-2.3-0.1-3.3,0.6c-0.9,0.6-1.6,1.5-1.9,2.5c-0.2,1.1-0.1,2.3,0.6,3.3l98.2,154.4l-37.6,16.4
	c-14-16.4-37-38.1-75-63.5c-18.8-14-33.5-32.3-42.6-53.2c-13.6-31.1-14.3-65.7-1.8-97.7C185.7,97,209.6,72,240.8,58.4l1.8-0.8
	c31.2-13.5,65.7-14.1,97.2-1.6s56.4,36.7,70,68C420.2,147.7,423.8,169.5,420.8,190.9z M417.8,298.4c0.5,2.8,0.9,5.4,1.5,8l-102,78.1
	l-6-14c-2-4.3-5.7-11.1-12.7-20.1L417.8,298.4z M442.4,363.3l14.7,33.3c3.5,8,3.7,17,0.5,25.2c-3.2,8.2-9.5,14.6-17.4,18.1
	l-53.1,23.2c-8,3.5-16.9,3.7-25.1,0.5c-8.2-3.2-14.6-9.3-18.1-17.4l-2.5-5.6L442.4,363.3z"/>
</svg>
