<svg xmlns="http://www.w3.org/2000/svg" width="640" height="512" viewBox="0 0 640 512">
    <g fill="none" fill-rule="evenodd" stroke="#22C2D3" stroke-linecap="round" stroke-linejoin="round" stroke-opacity=".15" stroke-width="7.2">
        <path d="M172.015 256.632c13.824-46.656 8.64-82.944 8.64-82.944s43.2 22.464 44.928 48.384c-2.592-82.08 21.6-128.736 74.304-171.072 19.872 64.8 76.032 39.744 101.952 134.784 6.912-27.648 19.008-65.664 19.008-65.664 19.008 27.648 72.576 143.424 53.568 238.464-12.387 61.935-74.114 103.575-153.665 102.605-195.391-2.381-162.56-157.901-148.735-204.557"/>
        <path d="M275.695 412.152c-30.272-13.622-46.656-70.848-24.192-119.232 6.912 22.464 24.192 22.464 24.192 22.464s6.912-70.848 27.648-86.4c16.416 50.976 51.84 22.464 67.392 98.496 8.64-17.28 13.824-27.648 13.824-39.744 22.464 22.464 19.008 88.128 1.728 110.592-21.618 28.102-76.032 29.376-110.592 13.824"/>
    </g>
</svg>
