<?xml version="1.0" encoding="utf-8"?>
<!-- Generator: Adobe Illustrator 24.0.3, SVG Export Plug-In . SVG Version: 6.00 Build 0)  -->
<svg version="1.1" id="レイヤー_1" xmlns="http://www.w3.org/2000/svg" xmlns:xlink="http://www.w3.org/1999/xlink" x="0px"
	 y="0px" viewBox="0 0 640 512" style="enable-background:new 0 0 640 512;" xml:space="preserve">
<style type="text/css">
	.st0{opacity:0.152;}
	.st1{fill:#22C2D3;}
	.st2{fill-rule:evenodd;clip-rule:evenodd;fill:#22C2D3;}
	.st3{fill-rule:evenodd;clip-rule:evenodd;fill:#FFFFFF;stroke:#22C2D3;stroke-width:5.4238;}
</style>
<g transform="translate(.446 .784)" class="st0">
	<path class="st1" d="M466,83.5v0.1c0,0.1,0,0.2,0.1,0.3c0.1,0.3,0.1,0.6,0.2,0.9c0,0.1,0,0.1,0,0.2s0,0.1,0,0.2c0,0.1,0,0.2,0,0.3
		c0,0.1,0,0.1,0,0.2s0,0.2,0,0.3v0.1c0,0.3,0,0.7,0.1,1l0,0v0.1c0,0.2,0,0.4,0,0.7l0,0v151.4l27.4,155.1c1.8,9.9-4.5,19.4-14.1,21.7
		l-0.6,0.1l-0.8,0.1l-12,2.1v0.1c0,0.2,0,0.4,0,0.7v0.1l0,0v0.4c0,0,0,0,0,0.1c0,0.3,0,0.7-0.1,0.9c0,0.1,0,0.2,0,0.3
		c0,0.1,0,0.1,0,0.2c0,0.3-0.1,0.7-0.1,0.9c-0.1,0.3-0.1,0.5-0.2,0.9c-0.1,0.3-0.1,0.6-0.2,0.9c0,0.1-0.1,0.2-0.1,0.3v0.1
		c-0.1,0.3-0.2,0.5-0.3,0.9c0,0,0,0.1-0.1,0.1c0,0.1-0.1,0.2-0.1,0.3c-0.1,0.2-0.2,0.5-0.3,0.8c-0.2,0.4-0.4,0.9-0.7,1.2
		c0,0.1-0.1,0.2-0.1,0.3c0,0.1-0.1,0.1-0.1,0.2c-0.1,0.2-0.3,0.6-0.4,0.8c0,0.1-0.1,0.1-0.1,0.2c0,0.1-0.1,0.1-0.1,0.2
		c-0.4,0.7-1,1.3-1.5,2l-0.4,0.4c-0.5,0.7-1.2,1.2-1.9,1.8c-0.1,0.1-0.2,0.2-0.3,0.3c-0.2,0.2-0.4,0.3-0.7,0.5
		c-0.1,0-0.1,0.1-0.2,0.1s-0.1,0.1-0.2,0.1c-0.1,0-0.1,0.1-0.2,0.1c-0.1,0.1-0.2,0.1-0.3,0.2c-0.2,0.1-0.4,0.2-0.7,0.3
		c-0.2,0.1-0.5,0.3-0.8,0.4c-0.1,0-0.1,0.1-0.2,0.1s-0.2,0.1-0.3,0.1h-0.1c-0.1,0-0.2,0.1-0.3,0.1s-0.2,0.1-0.3,0.1
		s-0.2,0.1-0.3,0.1c0,0,0,0-0.1,0c-0.3,0.1-0.7,0.2-0.9,0.3c-0.3,0.1-0.7,0.2-1,0.2c0,0,0,0-0.1,0c-0.1,0-0.2,0.1-0.3,0.1
		s-0.2,0.1-0.4,0.1h-0.1c-0.1,0-0.2,0-0.3,0.1c-0.1,0-0.2,0-0.3,0.1h-0.1c-0.1,0-0.2,0-0.3,0s-0.3,0-0.4,0h-0.1c-0.1,0-0.2,0-0.3,0
		c-0.2,0-0.5,0-0.8,0h0.4c-0.1,0-0.2,0-0.3,0h-0.1c-0.2,0-0.5,0-0.8,0l0,0h-89.3l-133.4,23.5c-9.9,1.8-19.4-4.5-21.7-14.1l-0.1-0.6
		l-0.1-0.8l-1.4-8.1h-11.4c-0.6,0-1.1,0-1.5-0.1c-0.1,0-0.1,0-0.2,0c0,0,0,0-0.1,0c-0.2,0-0.3,0-0.6-0.1c-0.3,0-0.7-0.1-0.9-0.1
		c-0.3-0.1-0.7-0.1-1.1-0.2c-0.3-0.1-0.7-0.2-1.1-0.3c-0.7-0.2-1.3-0.4-1.9-0.7c-0.1,0-0.2-0.1-0.2-0.1c-0.6-0.2-1.2-0.6-1.8-0.9
		c-0.1,0-0.1-0.1-0.2-0.1c-0.2-0.1-0.6-0.3-0.8-0.4c-0.1,0-0.1-0.1-0.2-0.1c-0.1-0.1-0.2-0.1-0.3-0.2l-0.1-0.1
		c-0.1-0.1-0.2-0.1-0.3-0.2l-0.1-0.1c-0.2-0.2-0.6-0.4-0.8-0.5c-0.1,0-0.1-0.1-0.1-0.1c-0.1-0.1-0.1-0.1-0.2-0.2
		c-0.1-0.1-0.2-0.1-0.2-0.2l-0.1-0.1c-0.1-0.1-0.2-0.2-0.2-0.2l-0.1-0.1c-0.1-0.1-0.1-0.1-0.2-0.2l-0.1-0.1
		c-0.1-0.1-0.2-0.2-0.3-0.3l0,0l0,0c-0.4-0.5-0.9-1-1.3-1.6l-0.1-0.1c-0.1-0.1-0.1-0.2-0.2-0.3l-0.1-0.1c-0.1-0.1-0.1-0.2-0.2-0.3
		c0-0.1-0.1-0.1-0.1-0.2c-0.1-0.2-0.3-0.4-0.4-0.8c0-0.1-0.1-0.1-0.1-0.2s-0.1-0.2-0.1-0.3c0-0.1-0.1-0.1-0.1-0.2
		c-0.1-0.2-0.2-0.6-0.3-0.8c0-0.1-0.1-0.2-0.1-0.2c0-0.1-0.1-0.1-0.1-0.2s-0.1-0.2-0.1-0.3c0-0.1-0.1-0.2-0.1-0.2
		c0-0.1-0.1-0.2-0.1-0.3c0-0.1,0-0.1-0.1-0.2c0-0.1-0.1-0.2-0.1-0.3s0-0.1-0.1-0.2c0-0.1-0.1-0.2-0.1-0.3c0-0.1,0-0.1-0.1-0.2
		c0-0.1-0.1-0.2-0.1-0.3s0-0.1,0-0.2s-0.1-0.2-0.1-0.3c0-0.1,0-0.1,0-0.2c0-0.1,0-0.1,0-0.2c0-0.1,0-0.2-0.1-0.3
		c0-0.1,0-0.3-0.1-0.4v-0.1c0-0.1,0-0.1,0-0.2c0-0.1,0-0.2,0-0.3s0-0.3,0-0.4v-0.1c0-0.1,0-0.1,0-0.2c0-0.3,0-0.6,0-0.9l0,0v-0.1
		c0-0.2,0-0.4,0-0.7l0,0v-24.2V265l-26.3-149.2c-1.8-10.1,4.7-19.7,14.6-21.9l0,0l0.8-0.1l10.9-1.9v-4.2c0-0.9,0.1-1.8,0.2-2.5
		c0.1-0.6,0.1-1,0.2-1.4c0-0.1,0.1-0.3,0.1-0.4c0.1-0.2,0.1-0.4,0.2-0.7c0.1-0.4,0.2-0.9,0.4-1.3c0.2-0.4,0.3-0.9,0.6-1.3
		c0-0.1,0.1-0.2,0.1-0.2c0-0.1,0.1-0.1,0.1-0.2s0.1-0.1,0.1-0.2c0.1-0.2,0.2-0.6,0.4-0.8c0.1-0.2,0.2-0.4,0.4-0.7
		c0.1-0.2,0.3-0.5,0.4-0.8c0.2-0.2,0.3-0.4,0.6-0.8l0.1-0.1c0.2-0.2,0.3-0.4,0.5-0.7c0.2-0.2,0.4-0.4,0.6-0.7l0.1-0.1
		c0.1-0.1,0.1-0.1,0.2-0.2c0.1-0.1,0.1-0.1,0.2-0.2c0.1,0,0.1-0.1,0.2-0.1c0.1-0.1,0.2-0.1,0.2-0.2l0.1-0.1c0.1-0.1,0.2-0.1,0.2-0.2
		c0.1-0.1,0.1-0.1,0.2-0.2c0.1,0,0.1-0.1,0.2-0.1c0.1-0.1,0.2-0.1,0.3-0.2l0.1-0.1c0.1-0.1,0.2-0.1,0.3-0.2c0.1,0,0.1-0.1,0.2-0.1
		c0.1-0.1,0.1-0.1,0.2-0.2c0.1-0.1,0.1-0.1,0.2-0.2c0.1,0,0.1-0.1,0.2-0.1c0.1-0.1,0.2-0.1,0.3-0.2c0.1,0,0.1-0.1,0.2-0.1
		c0.1,0,0.1-0.1,0.2-0.1c0.1-0.1,0.2-0.1,0.3-0.2c0.1,0,0.1-0.1,0.2-0.1s0.2-0.1,0.3-0.1l0.1-0.1c0.1-0.1,0.2-0.1,0.3-0.2
		c0.1,0,0.1-0.1,0.2-0.1c0.1,0,0.2-0.1,0.3-0.1s0.1-0.1,0.2-0.1s0.1-0.1,0.2-0.1c0.1,0,0.2-0.1,0.3-0.1c0.1,0,0.1,0,0.2-0.1
		c0.1,0,0.2-0.1,0.3-0.1c0.1,0,0.1,0,0.2-0.1c0.1,0,0.2-0.1,0.3-0.1c0.1,0,0.1-0.1,0.2-0.1c0.1,0,0.2-0.1,0.3-0.1s0.2,0,0.2-0.1
		c0.1,0,0.1,0,0.2-0.1c0.1,0,0.3-0.1,0.4-0.1c0,0,0,0,0.1,0c0.1,0,0.2-0.1,0.3-0.1c0.1,0,0.2,0,0.2-0.1c0.1,0,0.2,0,0.3-0.1
		c0.1,0,0.2,0,0.2,0c0.1,0,0.3,0,0.4-0.1h0.1c0.2,0,0.3,0,0.5-0.1c0,0,0,0,0.1,0c0.1,0,0.3,0,0.4,0c0.1,0,0.1,0,0.2,0
		c0.1,0,0.3,0,0.4,0c0.2,0,0.4,0,0.7,0h-0.5c0.1,0,0.2,0,0.3,0h0.2h0.1c0.2,0,0.4,0,0.7,0l0,0h112.6l110-19.5
		c10.3-1.9,20.1,5.1,22,15.4l0,0l0.8,4.2h11.1c0.2,0,0.4,0,0.7,0c0.3,0,0.8,0,1.1,0.1c0,0,0,0,0.1,0c0.3,0,0.8,0.1,1.1,0.1
		c0,0,0,0,0.1,0c0.3,0.1,0.7,0.1,1,0.2c0.1,0,0.2,0,0.3,0.1c0.3,0.1,0.5,0.1,0.9,0.2c0.2,0.1,0.6,0.1,0.8,0.2
		c0.2,0.1,0.6,0.2,0.8,0.3h0.1c0.1,0,0.2,0.1,0.3,0.1c0,0,0.1,0,0.1,0.1c0.1,0,0.1,0,0.2,0.1c0.1,0,0.2,0.1,0.3,0.1
		c0.3,0.1,0.5,0.2,0.9,0.4c0,0,0.1,0,0.1,0.1c0.1,0.1,0.2,0.1,0.3,0.2l0.1,0.1c0.1,0.1,0.2,0.1,0.3,0.2c0,0,0.1,0,0.1,0.1
		c0.2,0.1,0.6,0.3,0.8,0.5c0.1,0,0.1,0.1,0.2,0.1l0.1,0.1c0.1,0.1,0.2,0.1,0.3,0.2l0.1,0.1c0.1,0.1,0.2,0.1,0.2,0.2
		c0.1,0,0.1,0.1,0.2,0.1c0.1,0.1,0.2,0.1,0.2,0.2l0.1,0.1c0.1,0.1,0.1,0.1,0.2,0.2c0.1,0.1,0.2,0.1,0.2,0.2l0.1,0.1
		c0.3,0.3,0.7,0.7,1,1c0.1,0.1,0.1,0.1,0.2,0.2l0.1,0.1c0.1,0.1,0.1,0.1,0.2,0.2c0.2,0.2,0.4,0.4,0.5,0.8l0.1,0.1
		c0,0.1,0.1,0.1,0.1,0.2c0.1,0.1,0.1,0.1,0.2,0.2c0,0.1,0.1,0.1,0.1,0.2c0.1,0.1,0.1,0.2,0.2,0.3l0.1,0.1c0.1,0.1,0.1,0.2,0.2,0.2
		c0,0.1,0.1,0.1,0.1,0.2c0,0.1,0.1,0.1,0.1,0.2c0,0.1,0.1,0.1,0.1,0.2s0.1,0.1,0.1,0.2c0,0.1,0.1,0.1,0.1,0.2s0.1,0.2,0.1,0.3
		c0,0.1,0.1,0.1,0.1,0.2c0,0.1,0.1,0.2,0.1,0.2c0,0.1,0.1,0.2,0.1,0.2c0,0.1,0.1,0.2,0.1,0.3s0,0.1,0.1,0.2c0,0.1,0.1,0.2,0.1,0.3
		c0,0,0,0.1,0.1,0.1c0.1,0.3,0.2,0.5,0.3,0.9c0,0.1,0.1,0.2,0.1,0.2c0,0.1,0.1,0.2,0.1,0.3c0,0.1,0,0.1,0.1,0.2c0,0.1,0,0.2,0.1,0.3
		c0,0.1,0,0.1,0,0.2L466,83.5L466,83.5z M295.9,437.8h-83.4l1.1,6.3c0.8,4.3,4.7,7.2,9,6.7l0.4-0.1L295.9,437.8z M447.7,80H190l0,0
		h-0.4c-2.6,0.1-4.8,1.5-6.3,3.5c-0.9,1.3-1.4,2.9-1.4,4.6l0,0v330.7c0,4.5,3.6,8.1,8.1,8.1l0,0h20.6l0,0h146.9l0,0h90.2l0,0h0.4
		c1.9-0.1,3.6-0.9,4.9-2.1l0.3-0.3c1.4-1.4,2.4-3.5,2.4-5.7l0,0v-4.4v-4.7l0,0V88.1c0-3.3-1.9-6.1-4.6-7.4
		C450.1,80.3,448.9,80,447.7,80L447.7,80z M466.6,302v105.7l10.1-1.8c4.3-0.8,7.1-4.7,6.7-9l-0.1-0.4L466.6,302z M171,103.4l-9,1.5
		c-4.4,0.8-7.4,5-6.6,9.5l0,0L171,203V103.4z M425.1,66.8c-0.8-4.4-5-7.4-9.5-6.6l0,0l-50.6,8.9h60.4L425.1,66.8z"/>
	<path class="st2" d="M231.8,112.9h99c1.5,0,2.8,1.2,2.8,2.8l0,0c0,1.5-1.2,2.8-2.8,2.8h-99c-1.5,0-2.8-1.2-2.8-2.8l0,0
		C229.2,114.1,230.4,112.9,231.8,112.9z"/>
	<path class="st2" d="M231.8,138.6h174.9c1.5,0,2.8,1.2,2.8,2.8l0,0c0,1.5-1.2,2.8-2.8,2.8H231.8c-1.5,0-2.8-1.2-2.8-2.8l0,0
		C229.2,139.8,230.4,138.6,231.8,138.6z"/>
	<g transform="translate(34.388 54.253)">
		<path class="st1" d="M228.4,123.9c4.1,0,7.8,1.8,10.3,4.6l0.1-0.1c1.5-1.5,3.9-1.5,5.4-0.3l0.3,0.3c1.5,1.5,1.5,3.9,0.3,5.4
			l-0.3,0.3l-2.3,2.3c0,0.4,0.1,0.9,0.1,1.3l0,0v22.4c0,7.7-6.3,14-14,14l0,0h-22.4c-7.7,0-14-6.3-14-14l0,0v-22.4
			c0-7.7,6.3-14,14-14l0,0h22.4V123.9z M228.4,129.3h-22.4c-4.7,0-8.5,3.9-8.5,8.5l0,0v22.4c0,4.7,3.9,8.5,8.5,8.5l0,0h22.4
			c4.7,0,8.5-3.9,8.5-8.5l0,0v-18.5l-16.9,17.1c-1.5,1.5-3.9,1.5-5.4,0.3l-0.3-0.3l-14.1-14c-1.5-1.5-1.5-4.2,0-5.7s3.8-1.5,5.4-0.3
			l0.3,0.3l11.1,11.1l17.8-17.8C233.3,130.4,230.9,129.3,228.4,129.3L228.4,129.3z"/>
		<path class="st2" d="M263.6,133.2h106.8c1.5,0,2.8,1.2,2.8,2.8l0,0c0,1.5-1.2,2.8-2.8,2.8H263.6c-1.5,0-2.8-1.2-2.8-2.8l0,0
			C260.8,134.4,262,133.2,263.6,133.2z"/>
		<path class="st2" d="M263.2,156.3H350c1.5,0,2.8,1.2,2.8,2.8l0,0c0,1.5-1.2,2.8-2.8,2.8h-86.8c-1.5,0-2.8-1.2-2.8-2.8l0,0
			C260.5,157.5,261.7,156.3,263.2,156.3z"/>
	</g>
	<g transform="translate(35.804 89.301)">
		<path class="st3" d="M204.4,171.8h22.4c6.2,0,11.2,5.1,11.2,11.2v22.4c0,6.2-5.1,11.2-11.2,11.2h-22.4c-6.2,0-11.2-5.1-11.2-11.2
			V183C193.2,176.8,198.2,171.8,204.4,171.8z"/>
		<path class="st2" d="M263.3,178.1h106.8c1.5,0,2.8,1.2,2.8,2.8l0,0c0,1.5-1.2,2.8-2.8,2.8H263.3c-1.5,0-2.8-1.2-2.8-2.8l0,0
			C260.6,179.3,261.8,178.1,263.3,178.1z"/>
		<path class="st2" d="M263.1,201.1h86.8c1.5,0,2.8,1.2,2.8,2.8l0,0c0,1.5-1.2,2.8-2.8,2.8h-86.8c-1.5,0-2.8-1.2-2.8-2.8l0,0
			C260.4,202.3,261.7,201.1,263.1,201.1z"/>
	</g>
	<g transform="translate(34.388 121.95)">
		<path class="st1" d="M228.4,216.9c4.1,0,7.8,1.8,10.3,4.6l0.1-0.1c1.5-1.5,3.9-1.5,5.4-0.3l0.3,0.3c1.5,1.5,1.5,3.9,0.3,5.4
			l-0.3,0.3l-2.3,2.3c0,0.4,0.1,0.9,0.1,1.3l0,0v22.4c0,7.7-6.3,14-14,14l0,0h-22.4c-7.7,0-14-6.3-14-14l0,0v-22.4
			c0-7.7,6.3-14,14-14l0,0h22.4V216.9z M228.4,222.3h-22.4c-4.7,0-8.5,3.9-8.5,8.5l0,0v22.4c0,4.7,3.9,8.5,8.5,8.5l0,0h22.4
			c4.7,0,8.5-3.9,8.5-8.5l0,0v-18.5l-16.9,17.1c-1.5,1.5-3.9,1.5-5.4,0.3l-0.3-0.3l-14.1-13.9c-1.5-1.5-1.5-4.2,0-5.7
			s3.8-1.5,5.4-0.3l0.3,0.3l11.1,11.1l17.8-17.8C233.3,223.5,230.9,222.3,228.4,222.3L228.4,222.3z"/>
		<path class="st2" d="M264.7,228.1h106.8c1.5,0,2.8,1.2,2.8,2.8l0,0c0,1.5-1.2,2.8-2.8,2.8H264.7c-1.5,0-2.8-1.2-2.8-2.8l0,0
			C262,229.4,263.2,228.1,264.7,228.1z"/>
		<path class="st2" d="M264.7,248.5h86.8c1.5,0,2.8,1.2,2.8,2.8l0,0c0,1.5-1.2,2.8-2.8,2.8h-86.8c-1.5,0-2.8-1.2-2.8-2.8l0,0
			C262,249.7,263.2,248.5,264.7,248.5z"/>
	</g>
</g>
</svg>
