<svg xmlns="http://www.w3.org/2000/svg" xmlns:xlink="http://www.w3.org/1999/xlink" width="144" height="44" viewBox="0 0 144 44">
  <defs>
    <clipPath id="clip-path">
      <rect width="144" height="44" fill="none"/>
    </clipPath>
  </defs>
  <g id="dot_d" clip-path="url(#clip-path)">
    <g transform="translate(-489 -2484)">
      <circle id="楕円形_1" data-name="楕円形 1" cx="6.5" cy="6.5" r="6.5" transform="translate(492 2485)" fill="#00ce28" opacity="0.117"/>
    </g>
    <g transform="translate(-464 -2484)">
      <circle id="楕円形_1-2" data-name="楕円形 1" cx="6.5" cy="6.5" r="6.5" transform="translate(492 2485)" fill="#00ce28" opacity="0.117"/>
    </g>
    <g transform="translate(-439 -2484)">
      <circle id="楕円形_1-3" data-name="楕円形 1" cx="6.5" cy="6.5" r="6.5" transform="translate(492 2485)" fill="#00ce28" opacity="0.117"/>
    </g>
    <g transform="translate(-414 -2484)">
      <circle id="楕円形_1-4" data-name="楕円形 1" cx="6.5" cy="6.5" r="6.5" transform="translate(492 2485)" fill="#00ce28" opacity="0.117"/>
    </g>
    <g transform="translate(-389 -2484)">
      <circle id="楕円形_1-5" data-name="楕円形 1" cx="6.5" cy="6.5" r="6.5" transform="translate(492 2485)" fill="#00ce28" opacity="0.117"/>
    </g>
    <g transform="translate(-364 -2484)">
      <circle id="楕円形_1-6" data-name="楕円形 1" cx="6.5" cy="6.5" r="6.5" transform="translate(492 2485)" fill="#00ce28" opacity="0.117"/>
    </g>
    <g transform="translate(-489 -2459)">
      <circle id="楕円形_1-7" data-name="楕円形 1" cx="6.5" cy="6.5" r="6.5" transform="translate(492 2485)" fill="#00ce28" opacity="0.117"/>
    </g>
    <g transform="translate(-464 -2459)">
      <circle id="楕円形_1-8" data-name="楕円形 1" cx="6.5" cy="6.5" r="6.5" transform="translate(492 2485)" fill="#00ce28" opacity="0.117"/>
    </g>
    <g transform="translate(-439 -2459)">
      <circle id="楕円形_1-9" data-name="楕円形 1" cx="6.5" cy="6.5" r="6.5" transform="translate(492 2485)" fill="#00ce28" opacity="0.117"/>
    </g>
    <g transform="translate(-414 -2459)">
      <circle id="楕円形_1-10" data-name="楕円形 1" cx="6.5" cy="6.5" r="6.5" transform="translate(492 2485)" fill="#00ce28" opacity="0.117"/>
    </g>
    <g transform="translate(-389 -2459)">
      <circle id="楕円形_1-11" data-name="楕円形 1" cx="6.5" cy="6.5" r="6.5" transform="translate(492 2485)" fill="#00ce28" opacity="0.117"/>
    </g>
    <g transform="translate(-364 -2459)">
      <circle id="楕円形_1-12" data-name="楕円形 1" cx="6.5" cy="6.5" r="6.5" transform="translate(492 2485)" fill="#00ce28" opacity="0.117"/>
    </g>
  </g>
</svg>
